<?xml version="1.0" encoding="UTF-8"?>
<svg id="Calque_2" data-name="Calque 2" xmlns="http://www.w3.org/2000/svg" viewBox="0 0 1670.59 386.96">
  <defs>
    <style>
      .cls-1 {
        fill: #0d1d91;
      }

      .cls-2 {
        fill: #f9bd43;
      }
    </style>
  </defs>
  <g id="Calque_1-2" data-name="Calque 1">
    <path class="cls-1" d="M375.95,307.64c-6.8,8.14-15.89,12.21-27.34,12.21-9.73,0-18.06-2.86-24.86-8.58-6.87-5.66-12.14-13.92-15.89-24.67-3.75-10.74-6.1-23.9-7.06-39.54h164.02c.7-34.84-2.92-63.89-10.75-87.16-7.76-23.27-20.34-41.01-37.57-53.21-17.23-12.21-39.86-18.31-67.9-18.31s-51.88,6.04-69.81,18.06c-17.93,12.08-31.15,28.67-39.8,49.84-8.65,21.11-12.97,47.17-12.97,78.13s4.26,55.56,12.71,76.86c8.46,21.36,21.74,38.02,39.8,50.1,18.06,12.02,41.13,18.06,69.11,18.06,25.05,0,46.09-4.77,63-14.18,16.91-9.41,29.75-21.23,38.59-35.41,8.77-14.18,14.62-29.18,17.55-45.14l-76.67-9.79c-2.61,13.67-7.31,24.6-14.18,32.74ZM308.11,170.89c3.88-9.09,9.09-16.08,15.64-20.98,6.48-4.89,14.11-7.31,22.95-7.31,8.14,0,15.26,2.42,21.49,7.31,6.17,4.9,11.06,11.76,14.62,20.73,3.56,8.96,5.85,19.96,6.87,33h-88.43c.64-12.72,2.92-23.65,6.87-32.74Z"/>
    <path class="cls-1" d="M651.87,88.37c-19.2,0-34.78,3.24-46.6,9.79-2.99,1.59-5.85,3.5-8.58,5.53-.19.13-.38.25-.57.44-18.95,16.97-20.98,62.3-20.98,62.3l.06-38.02v-31.28h-79.09c12.46,97.33,12.4,188.5,0,273.5h82.52v-159.7c0-13.35,1.53-24.35,4.64-33,3.12-8.58,7.76-14.88,13.92-18.75,6.17-3.94,13.8-5.91,22.95-5.91s15.89,1.97,21.23,5.91c5.34,3.88,9.35,10.04,11.95,18.56,2.61,8.46,3.94,19.52,3.94,33.19v159.7h76.16v-180.68c0-35.16-7.25-60.9-21.74-77.18-14.5-16.28-34.39-24.41-59.82-24.41Z"/>
    <path class="cls-1" d="M941.45,126.45c-4.9-8.14-10.81-14.94-17.87-20.53-6.99-5.53-15-9.79-24.16-12.91-9.09-3.12-19.2-4.64-30.26-4.64-20.22,0-37.45,5.34-51.75,16.08-14.37,10.74-25.43,26.96-33.18,48.64-7.82,21.62-11.76,48.76-11.76,81.31s3.81,59,11.51,80.3c7.63,21.36,18.63,37.45,32.93,48.32,14.3,10.93,31.28,16.4,50.8,16.4,11.06,0,21.3-1.46,30.77-4.39,9.41-2.92,18.06-7.44,25.88-13.48,7.82-5.98,14.81-13.41,20.98-22.19v31.28h71.78V19.01h-75.65v107.44ZM936.3,282.72c-3.43,12.02-8.65,21.11-15.64,27.08-6.99,6.04-15.7,9.03-26.13,9.03-9.09,0-16.85-2.99-23.14-9.03-6.36-5.98-11.25-14.88-14.69-26.57-3.43-11.76-5.09-28.16-5.09-49.33s1.65-37.26,5.09-49.33c3.43-12.02,8.33-20.92,14.69-26.64,6.29-5.66,14.05-8.52,23.14-8.52,10.43,0,19.14,2.86,26.13,8.52,6.99,5.72,12.21,14.69,15.64,26.89,3.43,12.21,5.15,28.55,5.15,49.08s-1.72,36.81-5.15,48.83Z"/>
    <path class="cls-1" d="M1196.83,88.37c-14.69,0-26.89,4.26-36.62,12.72-4.13,3.62-7.95,8.01-11.25,13.16-.06.06-.06.13-.13.19-10.68,20.34-12.01,50.35-12.01,50.35l.06-67.64h-78.26c11.25,109.73,10.3,199.31,0,273.5h82.52v-135.8c0-16.91,2.16-30.33,6.36-40.24,4.26-9.98,9.79-17.1,16.59-21.49,6.86-4.45,14.49-6.61,22.95-6.61,6.87,0,12.52.89,17.1,2.67,4.58,1.78,9.47,4.83,14.69,9.03l5.85-81.06c-3.94-3.24-8.14-5.53-12.71-6.8-4.58-1.33-9.6-1.97-15.13-1.97Z"/>
    <rect class="cls-1" x="1247.12" y="2.42" width="79.6" height="63.96"/>
    <rect class="cls-1" x="1249.09" y="97.14" width="76.16" height="273.5"/>
    <path class="cls-1" d="M1590.49,230.97l78.13-133.76h-83.03l-41.51,87.86,6.23,12.97c8.65,17.87,8.77,38.72.38,56.71l-12.21,26.13,44.18,89.77h87.93l-80.1-139.68Z"/>
    <path class="cls-2" d="M1476.18,97.18h-88.37l59.43,101.4-85.15-3.61v65.69l89.72-4.64-63.48,114.59,83.23.52,41.51-90.34v.05s11.84-25.43,11.84-25.43c8.59-18.43,8.45-39.74-.39-58.06l-48.34-100.18Z"/>
    <polygon class="cls-1" points="280.53 0 4.92 0 0 63.98 97.35 63.98 55.98 386.96 135.96 386.96 177.32 63.98 270.07 63.98 280.53 0"/>
  </g>
</svg>