<?xml version="1.0" encoding="UTF-8"?>
<svg id="Calque_2" data-name="Calque 2" xmlns="http://www.w3.org/2000/svg" viewBox="0 0 1633.23 378.31">
  <defs>
    <style>
      .cls-1 {
        fill: #fff;
      }
    </style>
  </defs>
  <g id="Calque_1-2" data-name="Calque 1">
    <g>
      <path class="cls-1" d="M367.54,300.76c-6.65,7.96-15.54,11.93-26.73,11.93-9.51,0-17.65-2.8-24.3-8.39-6.71-5.53-11.87-13.61-15.54-24.12-3.67-10.5-5.97-23.37-6.9-38.66h160.36c.68-34.06-2.86-62.46-10.5-85.21-7.58-22.75-19.89-40.09-36.73-52.02-16.84-11.93-38.97-17.9-66.38-17.9s-50.72,5.9-68.24,17.65c-17.53,11.81-30.46,28.03-38.91,48.73-8.45,20.63-12.68,46.12-12.68,76.39s4.16,54.32,12.43,75.14c8.27,20.88,21.26,37.17,38.91,48.98,17.65,11.75,40.21,17.65,67.56,17.65,24.49,0,45.06-4.66,61.59-13.86,16.53-9.2,29.09-20.76,37.73-34.62,8.58-13.86,14.3-28.53,17.15-44.13l-74.96-9.57c-2.55,13.36-7.15,24.05-13.86,32.01ZM301.22,167.07c3.79-8.89,8.89-15.73,15.29-20.51,6.34-4.79,13.8-7.15,22.44-7.15,7.96,0,14.92,2.36,21.01,7.15,6.03,4.79,10.81,11.5,14.3,20.26,3.48,8.76,5.72,19.52,6.71,32.26h-86.46c.62-12.43,2.86-23.12,6.71-32.01Z"/>
      <path class="cls-1" d="M637.29,86.39c-18.77,0-34,3.17-45.56,9.57-2.92,1.55-5.72,3.42-8.39,5.41-.19.12-.37.25-.56.43-18.52,16.6-20.51,60.91-20.51,60.91l.06-37.17v-30.58h-77.32c12.18,95.16,12.12,184.28,0,267.38h80.67v-156.13c0-13.05,1.49-23.8,4.54-32.26,3.05-8.39,7.58-14.54,13.61-18.33,6.03-3.85,13.49-5.78,22.44-5.78s15.54,1.93,20.76,5.78c5.22,3.79,9.14,9.82,11.68,18.15,2.55,8.27,3.85,19.08,3.85,32.44v156.13h74.46v-176.64c0-34.37-7.09-59.54-21.26-75.45-14.17-15.91-33.62-23.87-58.49-23.87Z"/>
      <path class="cls-1" d="M920.4,123.62c-4.79-7.96-10.57-14.61-17.47-20.08-6.84-5.41-14.67-9.57-23.62-12.62-8.89-3.05-18.77-4.54-29.59-4.54-19.76,0-36.61,5.22-50.59,15.73-14.05,10.5-24.86,26.35-32.44,47.55-7.64,21.13-11.5,47.67-11.5,79.49s3.73,57.68,11.25,78.5c7.46,20.88,18.21,36.61,32.2,47.24,13.98,10.69,30.58,16.04,49.66,16.04,10.81,0,20.82-1.43,30.08-4.29,9.2-2.86,17.65-7.27,25.3-13.18,7.65-5.84,14.48-13.11,20.51-21.69v30.58h70.17V18.58h-73.96v105.04ZM915.36,276.4c-3.36,11.75-8.45,20.64-15.29,26.48-6.84,5.9-15.35,8.83-25.55,8.83-8.89,0-16.47-2.92-22.62-8.83-6.22-5.84-11-14.54-14.36-25.98-3.36-11.5-4.97-27.53-4.97-48.23s1.62-36.42,4.97-48.23c3.36-11.75,8.14-20.45,14.36-26.04,6.15-5.53,13.74-8.33,22.62-8.33,10.19,0,18.71,2.8,25.55,8.33,6.84,5.59,11.93,14.36,15.29,26.29,3.36,11.93,5.03,27.91,5.03,47.98s-1.68,35.99-5.03,47.73Z"/>
      <path class="cls-1" d="M1170.07,86.39c-14.36,0-26.29,4.16-35.8,12.43-4.04,3.54-7.77,7.83-11,12.87-.06.06-.06.12-.12.19-10.44,19.89-11.75,49.22-11.75,49.22l.06-66.13h-76.51c11,107.28,10.07,194.85,0,267.38h80.68v-132.76c0-16.53,2.11-29.65,6.22-39.34,4.16-9.76,9.57-16.72,16.22-21.01,6.71-4.35,14.17-6.46,22.44-6.46,6.71,0,12.24.87,16.72,2.61,4.48,1.74,9.26,4.72,14.36,8.83l5.72-79.25c-3.85-3.17-7.96-5.41-12.43-6.65-4.47-1.31-9.38-1.93-14.79-1.93Z"/>
      <rect class="cls-1" x="1221.16" y="94.97" width="74.46" height="267.38"/>
      <rect class="cls-1" x="1219.23" y="2.36" width="77.82" height="62.53"/>
      <path class="cls-1" d="M1554.92,225.8l76.39-130.77h-81.17l-40.59,85.9,6.09,12.68c8.45,17.47,8.58,37.85.37,55.44l-11.93,25.54,43.2,87.76h85.96l-78.31-136.55Z"/>
      <path class="cls-1" d="M1443.17,95.01h-86.39l58.1,99.13-83.25-3.53v64.23l87.71-4.53-62.06,112.03,81.37.51,40.59-88.32v.05s11.58-24.86,11.58-24.86c8.4-18.02,8.26-38.86-.38-56.76l-47.26-97.94Z"/>
      <polygon class="cls-1" points="274.26 0 4.81 0 0 62.55 95.17 62.55 54.73 378.31 132.92 378.31 173.36 62.55 264.03 62.55 274.26 0"/>
    </g>
  </g>
</svg>